<svg enable-background="new 0 0 91 91" height="91px" id="Layer_1" version="1.1" viewBox="0 0 91 91" width="91px" xml:space="preserve" xmlns="http://www.w3.org/2000/svg" xmlns:xlink="http://www.w3.org/1999/xlink"><g><g><g><path d="M77.613,59.769c-1.388,0-2.513-1.125-2.513-2.513V43.544H15.964v13.712c0,1.388-1.125,2.513-2.513,2.513     s-2.513-1.125-2.513-2.513V41.031c0-1.388,1.125-2.513,2.513-2.513h64.162c1.388,0,2.513,1.125,2.513,2.513v16.225     C80.126,58.644,79.001,59.769,77.613,59.769z" fill="#454B53"></path><path d="M45.533,59.769c-1.388,0-2.513-1.125-2.513-2.513V30.378c0-1.388,1.125-2.513,2.513-2.513     s2.513,1.125,2.513,2.513v26.878C48.046,58.644,46.921,59.769,45.533,59.769z" fill="#454B53"></path><g><path d="M23.893,67.697c0,5.766-4.674,10.442-10.443,10.442c-5.765,0-10.438-4.677-10.438-10.442      c0-5.765,4.673-10.441,10.438-10.441C19.219,57.256,23.893,61.933,23.893,67.697z" fill="#E0E0E0"></path><path d="M13.449,80.652c-7.141,0-12.951-5.812-12.951-12.955c0-7.143,5.811-12.954,12.951-12.954      c7.145,0,12.957,5.812,12.957,12.954C26.406,74.841,20.594,80.652,13.449,80.652z M13.449,59.769      c-4.37,0-7.926,3.557-7.926,7.929s3.556,7.93,7.926,7.93c4.373,0,7.932-3.558,7.932-7.93S17.822,59.769,13.449,59.769z" fill="#454B53"></path></g><g><path d="M55.857,67.697c0,5.766-4.671,10.442-10.441,10.442c-5.767,0-10.439-4.677-10.439-10.442      c0-5.765,4.673-10.441,10.439-10.441C51.187,57.256,55.857,61.933,55.857,67.697z" fill="#E0E0E0"></path><path d="M45.416,80.652c-7.142,0-12.951-5.812-12.951-12.955c0-7.143,5.81-12.954,12.951-12.954      c7.143,0,12.955,5.812,12.955,12.954C58.371,74.841,52.559,80.652,45.416,80.652z M45.416,59.769      c-4.371,0-7.926,3.557-7.926,7.929s3.555,7.93,7.926,7.93c4.372,0,7.93-3.558,7.93-7.93S49.788,59.769,45.416,59.769z" fill="#454B53"></path></g><g><circle cx="77.613" cy="67.697" fill="#E0E0E0" r="10.441"></circle><path d="M77.611,80.652c-7.143,0-12.953-5.812-12.953-12.955c0-7.143,5.811-12.954,12.953-12.954      s12.955,5.812,12.955,12.954C90.566,74.841,84.754,80.652,77.611,80.652z M77.611,59.769c-4.371,0-7.928,3.557-7.928,7.929      s3.557,7.93,7.928,7.93c4.373,0,7.93-3.558,7.93-7.93S81.984,59.769,77.611,59.769z" fill="#454B53"></path></g><g><rect fill="#F4767A" height="18.896" width="26.625" x="32.104" y="11.479"></rect><path d="M58.729,32.889H32.104c-1.388,0-2.513-1.125-2.513-2.513V11.479c0-1.388,1.125-2.513,2.513-2.513h26.625      c1.388,0,2.513,1.125,2.513,2.513v18.896C61.242,31.764,60.117,32.889,58.729,32.889z M34.617,27.863h21.6V13.992h-21.6V27.863z      " fill="#454B53"></path></g></g></g></g></svg>