<svg enable-background="new 0 0 100 100" height="100px" id="Layer_1" version="1.1" viewBox="0 0 100 100" width="100px" xml:space="preserve" xmlns="http://www.w3.org/2000/svg" xmlns:xlink="http://www.w3.org/1999/xlink"><g><g><rect clip-rule="evenodd" fill="#F2F2F2" fill-rule="evenodd" height="57.394" width="75.907" x="7.982" y="17.685"></rect></g><g><path d="M85.248,76.437H6.624v-60.11H63.87v2.717H9.342V73.72h73.189V19.043h-8.735v-2.717h11.452V76.437z M70.742,19.043h-3.371    v-2.717h3.371V19.043z"></path></g><g><rect clip-rule="evenodd" fill="#39B6CC" fill-rule="evenodd" height="43.048" width="75.907" x="7.982" y="32.03"></rect><path d="M85.248,76.437H6.624V30.672h78.624V76.437z M9.342,73.72h73.189V33.389H9.342V73.72z"></path></g><g><rect clip-rule="evenodd" fill="#FF7C24" fill-rule="evenodd" height="4.012" width="4.155" x="13.754" y="22.902"></rect></g><g><rect clip-rule="evenodd" fill="#FF7C24" fill-rule="evenodd" height="4.011" width="4.155" x="21.188" y="22.85"></rect></g><g><rect clip-rule="evenodd" fill="#FF7C24" fill-rule="evenodd" height="4.011" width="4.155" x="28.45" y="22.85"></rect></g><g><path clip-rule="evenodd" d="M62.946,37.57c8.267,0,14.966,6.699,14.966,14.967    c0,8.267-6.699,14.966-14.966,14.966S47.98,60.804,47.98,52.537C47.98,44.27,54.68,37.57,62.946,37.57L62.946,37.57z" fill="#F2F2F2" fill-rule="evenodd"></path><path d="M62.946,68.862c-9.002,0-16.324-7.323-16.324-16.325c0-9.001,7.322-16.325,16.324-16.325    c9.001,0,16.324,7.324,16.324,16.325C79.271,61.539,71.947,68.862,62.946,68.862z M62.946,38.93    c-7.503,0-13.607,6.104-13.607,13.607c0,7.504,6.104,13.607,13.607,13.607s13.607-6.104,13.607-13.607    C76.554,45.034,70.449,38.93,62.946,38.93z"></path></g><g><path clip-rule="evenodd" d="M76.315,59.27l4.617,4.767l-7.151,6.93l-4.646-4.799    C72.242,64.758,74.781,62.31,76.315,59.27L76.315,59.27z" fill="#B3B3B3" fill-rule="evenodd"></path><path d="M73.75,72.888l-6.932-7.162l1.756-0.796c2.813-1.276,5.132-3.503,6.528-6.271l0.86-1.705l6.891,7.113L73.75,72.888z     M71.371,66.522l2.44,2.521l5.2-5.038l-2.423-2.501C75.245,63.544,73.456,65.264,71.371,66.522z"></path></g><g><rect clip-rule="evenodd" fill="#FF7C24" fill-rule="evenodd" height="13.084" transform="matrix(-0.6951 -0.7189 0.7189 -0.6951 87.078 181.6348)" width="13.506" x="75.305" y="65.809"></rect><path d="M82.016,83.674L70.739,72.011L82.1,61.028l11.276,11.663L82.016,83.674z M74.582,72.076l7.498,7.756l7.453-7.206    l-7.498-7.756L74.582,72.076z"></path></g><g><polygon points="17.278,60.574 15.529,58.495 26.642,49.15 38.692,56.417 47.865,50.076 58.266,54.725 68.122,48.955 69.495,51.3     58.433,57.775 48.153,53.181 38.792,59.651 26.902,52.48   "></polygon></g><g><path clip-rule="evenodd" d="M26.772,47.8c1.664,0,3.015,1.352,3.015,3.016    c0,1.669-1.351,3.02-3.015,3.02c-1.669,0-3.016-1.351-3.016-3.02C23.757,49.151,25.104,47.8,26.772,47.8L26.772,47.8z" fill="#FF7C24" fill-rule="evenodd"></path><path d="M26.772,55.194c-2.412,0-4.374-1.965-4.374-4.379c0-2.412,1.962-4.374,4.374-4.374s4.374,1.962,4.374,4.374    C31.146,53.229,29.185,55.194,26.772,55.194z M26.772,49.158c-0.914,0-1.657,0.743-1.657,1.657c0,0.916,0.743,1.662,1.657,1.662    c0.913,0,1.656-0.746,1.656-1.662C28.429,49.901,27.686,49.158,26.772,49.158z"></path></g><g><path clip-rule="evenodd" d="M38.742,54.523c1.664,0,3.015,1.352,3.015,3.021    c0,1.664-1.351,3.015-3.015,3.015c-1.669,0-3.021-1.351-3.021-3.015C35.722,55.875,37.073,54.523,38.742,54.523L38.742,54.523z" fill="#FF7C24" fill-rule="evenodd"></path><path d="M38.742,61.918c-2.414,0-4.379-1.963-4.379-4.374c0-2.415,1.965-4.379,4.379-4.379c2.411,0,4.374,1.964,4.374,4.379    C43.116,59.955,41.153,61.918,38.742,61.918z M38.742,55.882c-0.916,0-1.662,0.745-1.662,1.662c0,0.913,0.746,1.656,1.662,1.656    c0.913,0,1.657-0.743,1.657-1.656C40.399,56.627,39.655,55.882,38.742,55.882z"></path></g><g><path clip-rule="evenodd" d="M58.156,52.647c1.669,0,3.016,1.352,3.016,3.021    c0,1.664-1.347,3.016-3.016,3.016c-1.664,0-3.015-1.352-3.015-3.016C55.142,53.999,56.492,52.647,58.156,52.647L58.156,52.647z" fill="#FF7C24" fill-rule="evenodd"></path><path d="M58.156,60.042c-2.411,0-4.374-1.962-4.374-4.374c0-2.414,1.963-4.379,4.374-4.379c2.412,0,4.374,1.965,4.374,4.379    C62.53,58.08,60.568,60.042,58.156,60.042z M58.156,54.007c-0.913,0-1.656,0.745-1.656,1.661c0,0.914,0.743,1.656,1.656,1.656    c0.914,0,1.656-0.742,1.656-1.656C59.813,54.752,59.07,54.007,58.156,54.007z"></path></g><g><path clip-rule="evenodd" d="M68.809,47.112c1.664,0,3.016,1.347,3.016,3.016    c0,1.664-1.352,3.015-3.016,3.015s-3.016-1.351-3.016-3.015C65.793,48.459,67.145,47.112,68.809,47.112L68.809,47.112z" fill="#FF7C24" fill-rule="evenodd"></path><path d="M68.809,54.502c-2.412,0-4.374-1.962-4.374-4.374s1.962-4.374,4.374-4.374s4.374,1.962,4.374,4.374    S71.221,54.502,68.809,54.502z M68.809,48.471c-0.913,0-1.657,0.743-1.657,1.657c0,0.913,0.744,1.656,1.657,1.656    s1.656-0.743,1.656-1.656C70.465,49.214,69.722,48.471,68.809,48.471z"></path></g><g><path clip-rule="evenodd" d="M16.404,56.519c1.663,0,3.015,1.352,3.015,3.016    c0,1.669-1.352,3.021-3.015,3.021c-1.664,0-3.016-1.352-3.016-3.021C13.389,57.87,14.74,56.519,16.404,56.519L16.404,56.519z" fill="#FF7C24" fill-rule="evenodd"></path><path d="M16.404,63.913c-2.412,0-4.374-1.964-4.374-4.379c0-2.411,1.962-4.373,4.374-4.373c2.411,0,4.373,1.962,4.373,4.373    C20.777,61.949,18.815,63.913,16.404,63.913z M16.404,57.878c-0.914,0-1.657,0.743-1.657,1.656c0,0.917,0.743,1.662,1.657,1.662    c0.913,0,1.656-0.745,1.656-1.662C18.061,58.621,17.317,57.878,16.404,57.878z"></path></g></g></svg>