<?xml version="1.0" encoding="UTF-8" standalone="no"?>
<svg
   xmlns:dc="http://purl.org/dc/elements/1.1/"
   xmlns:cc="http://creativecommons.org/ns#"
   xmlns:rdf="http://www.w3.org/1999/02/22-rdf-syntax-ns#"
   xmlns:svg="http://www.w3.org/2000/svg"
   xmlns="http://www.w3.org/2000/svg"
   xmlns:sodipodi="http://sodipodi.sourceforge.net/DTD/sodipodi-0.dtd"
   xmlns:inkscape="http://www.inkscape.org/namespaces/inkscape"
   inkscape:export-ydpi="192.25999"
   inkscape:export-xdpi="192.25999"
   inkscape:export-filename="/Users/wilfred/repos/yunikorn/yunikorn-site/static/img/logo/path12.png"
   inkscape:version="1.0 (4035a4f, 2020-05-01)"
   sodipodi:docname="yunikorn_logo2.svg"
   id="svg32"
   preserveAspectRatio="xMidYMid meet"
   viewBox="0 0 1063.000000 1075.000000"
   height="1075.000000pt"
   width="1063.000000pt"
   version="1.0">
  <defs
     id="defs36" />
  <sodipodi:namedview
     inkscape:current-layer="svg32"
     inkscape:window-maximized="0"
     inkscape:window-y="124"
     inkscape:window-x="1803"
     inkscape:cy="464.9563"
     inkscape:cx="361.25132"
     inkscape:zoom="2.6"
     showgrid="false"
     id="namedview34"
     inkscape:window-height="1905"
     inkscape:window-width="1927"
     inkscape:pageshadow="2"
     inkscape:pageopacity="0"
     guidetolerance="10"
     gridtolerance="10"
     objecttolerance="10"
     borderopacity="1"
     bordercolor="#666666"
     pagecolor="#ffffff" />
  <metadata
     id="metadata10">
Created by potrace 1.15, written by Peter Selinger 2001-2017
<rdf:RDF>
  <cc:Work
     rdf:about="">
    <dc:format>image/svg+xml</dc:format>
    <dc:type
       rdf:resource="http://purl.org/dc/dcmitype/StillImage" />
    <dc:title></dc:title>
  </cc:Work>
</rdf:RDF>
</metadata>
  <g
     id="g30"
     stroke="none"
     fill="#000000"
     transform="translate(0.000000,1075.000000) scale(0.100000,-0.100000)">
    <path
       sodipodi:nodetypes="ccccccccccsccccccccccccccccccccccccccccssccccccscccccccscsccccccccccscccccccscccccscccccsccsccccsccccccccscccccccccccccccccccc"
       id="path12"
       d="m 2860,9158 c 22.8582,-109.9589 68.8409,-236.2151 94,-334 7,-29 5,-30 -41,-42 -27,-7 -72,-23 -100,-36 -42,-20 -36.9701,-34.3854 -52.9701,-24.3854 -135.9379,78.9595 -605.7308,362.9672 -641.0226,387.6398 -50.9113,31.7885 -598.6488,402.064 -659.7424,352.2713 -62.2426,-40.8678 443.1427,-517.8566 471.0692,-549.791 L 2449,8365 l -16,-65 c -12,-47 -17,-109 -17,-220 0,-182 17,-259 88,-405 40,-82 74,-135 188,-297 30,-43 49,-94 99,-263 33,-115 75,-239 92,-275 61,-130 172,-201 290,-186 66,9 94,25 146,81 106,115 169,348 172,632 l 1,88 29,-100 c 135,-467 170,-883 88,-1046 -62,-123 -160,-174 -394,-204 -152,-19 -193,-29 -256,-61 -86,-43 -135,-128 -165,-282 -18,-96 -18,-176 2,-287 22,-124 14,-264 -25,-425 -63,-259 -62,-390 5,-546 41,-95 64,-111 131,-92 151,41 291,265 333,530 18,114 7,405 -20,532 -11,54 -20,99 -18,101 2,1 64,-8 138,-21 175,-29 314,-43 526,-51 l 172,-6 31,-52 c 116,-192 175,-481 151,-741 -25,-277 -102,-522 -208,-667 -50,-69 -121,-119 -255,-178 -126,-55 -181,-98 -217,-169 -26,-52 -60,-181 -60,-230 0,-44 -6,-42 200,-61 206,-19 414,1 508,50 49,26 117,97 137,143 16,39 19,119 6,153 -6,16 2,29 41,64 93,84 176,302 233,616 18,98 37,171 55,210 82,174 105,297 105,562 v 212 l 50,6 c 285,36 540,112 738,219 173,94 403,153 633,163 l 132,6 12,-89 c 49,-355 106,-639 151,-752 22,-57 29,-90 29,-143 0,-290 -241,-742 -582,-1095 -54,-55 -98,-106 -98,-113 0,-7 26,-24 58,-39 123,-56 397,-36 513,39 26,17 78,63 116,102 247,262 473,808 534,1295 22,178 14,463 -18,602 -4,18 35,-15 143,-120 345,-335 582,-479 793,-480 51,-1 68,-10 97,-55 29,-44 24,-180 -10,-310 -94,-351 -354,-808 -547,-961 -27,-21 -49,-42 -49,-47 0,-18 53,-55 95,-67 60,-17 247,-7 338,17 l 69,18 33,85 c 66,173 130,283 222,383 139,152 284,578 285,837 1,88 -4,123 -30,216 -40,145 -65,209 -103,269 -38,60 -123,150 -209,220 -73,60 -110,118 -130,204 -18,76 -7,250 26,441 20,115 27,191 28,295 1,133 0,143 -26,195 -34,69 -49,110 -42,110 3,0 37,-16 75,-36 86,-45 147,-99 203,-178 87,-121 119,-221 166,-526 76,-484 136,-668 275,-840 28,-36 77,-84 107,-108 62,-48 209,-134 216,-127 3,3 -16,27 -41,54 -82,87 -140,234 -180,456 -20,107 -22,155 -22,440 0,244 4,361 19,494 22,208 18,468 -8,566 -44,161 -137,281 -254,325 -143,55 -370,30 -569,-61 -35,-16 -70,-29 -79,-29 -8,0 -59,11 -112,25 -245,61 -562,111 -775,121 -153,8 -256,-4 -414,-45 -59,-16 -169,-45 -244,-64 -251,-66 -457,-70 -685,-12 -168,43 -344,136 -439,235 l -40,41 35,26 c 19,15 78,69 130,121 l 95,95 -95,23 c -103,26 -199,69 -252,115 -29,25 -31,28 -12,29 42,0 142,60 195,117 l 54,57 -30,7 c -16,4 -126,28 -243,54 -383,82 -648,169 -729,240 l -38,33 75,23 c 107,34 245,34 290,1 60,-45 41,-14 -37,58 -145,134 -327,240 -509,297 L 4025.3941,8904.2342 3780,8913 c -308,-3 -387,5 -550,59 -104,34 -202.4946,81.633 -282.4946,132.633 -29.1053,22.866 24.1957,-18.3347 -57.5054,43.367 -20,15 -30,18 -30,10 z" />
    <path
       id="path14"
       d="M1386 3103 c15 -26 121 -207 236 -400 l208 -352 0 -301 0 -300 100 0 100 0 0 308 0 307 235 388 c129 213 235 389 235 392 0 3 -47 5 -104 5 l-104 0 -42 -72 c-217 -370 -315 -527 -321 -521 -4 4 -84 139 -177 298 l-170 290 -112 3 -112 3 28 -48z" />
    <path
       id="path16"
       d="M5230 2450 l0 -700 95 0 95 0 0 278 0 278 40 39 c22 21 43 35 47 31 5 -4 116 -145 249 -314 l240 -307 127 -3 c70 -1 127 0 127 3 0 4 -135 178 -301 387 l-301 380 29 32 c295 317 531 574 537 584 5 9 -19 12 -112 12 l-119 0 -279 -313 -279 -314 -3 314 -2 313 -95 0 -95 0 0 -700z" />
    <path
       id="path18"
       d="M6665 2889 c-89 -13 -193 -68 -254 -135 -101 -110 -144 -244 -143 -449 0 -217 50 -354 168 -464 102 -96 247 -136 408 -113 209 30 353 173 401 397 19 90 19 280 0 369 -40 190 -153 326 -310 375 -75 24 -192 32 -270 20z m229 -158 c137 -60 216 -244 202 -468 -17 -265 -155 -419 -358 -400 -194 17 -308 183 -308 447 0 290 138 461 358 445 34 -2 82 -13 106 -24z" />
    <path
       id="path20"
       d="M2582 2438 c3 -429 3 -434 27 -492 30 -74 97 -148 165 -181 111 -54 309 -57 419 -5 112 53 178 151 197 293 5 43 10 245 10 448 l0 369 -79 0 -80 0 -3 -412 c-3 -379 -5 -417 -22 -458 -37 -89 -100 -130 -207 -138 -115 -8 -195 33 -245 128 -18 32 -19 68 -22 458 l-3 422 -80 0 -80 0 3 -432z" />
    <path
       id="path22"
       d="M3600 2310 l0 -560 75 0 75 0 2 464 3 463 236 -461 237 -461 91 -3 91 -3 0 561 0 560 -75 0 -75 0 -2 -426 -3 -426 -215 423 -215 424 -112 3 -113 3 0 -561z" />
    <path
       id="path24"
       d="M4580 2810 l0 -60 70 0 70 0 0 -440 0 -440 -70 0 -70 0 0 -60 0 -60 225 0 225 0 0 60 0 60 -75 0 -75 0 0 440 0 440 75 0 75 0 0 60 0 60 -225 0 -225 0 0 -60z" />
    <path
       id="path26"
       d="M7420 2311 l0 -561 75 0 75 0 0 220 0 220 83 0 82 0 174 -220 174 -220 104 0 c64 0 102 4 98 10 -3 5 -91 114 -196 241 l-190 232 53 29 c68 37 99 67 134 131 27 49 29 59 29 167 0 91 -4 122 -18 147 -28 51 -85 103 -146 132 -55 25 -61 26 -293 29 l-238 4 0 -561z m423 406 c108 -37 148 -167 89 -284 -41 -80 -93 -103 -249 -110 l-113 -6 0 213 0 213 118 -6 c65 -4 135 -12 155 -20z" />
    <path
       id="path28"
       d="M8370 2310 l0 -560 75 0 75 0 0 468 0 467 238 -465 239 -465 91 -3 92 -3 0 561 0 560 -75 0 -75 0 -2 -427 -3 -428 -216 425 -215 425 -112 3 -112 3 0 -561z" />
  </g>
</svg>
