<svg enable-background="new 0 0 64 64" id="Layer_1" version="1.1" viewBox="0 0 64 64" xml:space="preserve" xmlns="http://www.w3.org/2000/svg" xmlns:xlink="http://www.w3.org/1999/xlink"><path d="M22.6,19.3c-1.3,0.2-2.5,0.7-3.7,1.3c-5.4-1.3-11.9,0.4-12.6,2c-0.6,1.3,2.2,4,4.1,5.6  c-0.9,1.7-1.5,3.5-1.8,5.5c-1.9,0.2-4.5,0.8-4.9,2.4c-0.7,2.7,0,9,3.5,9.7c1.5,0.3,3.2,0.3,4.6,0.3c1.3,1.6,2.9,2.8,4.7,4L14.9,57  h10.3l1.4-3.7c0.8,0.1,1.6,0.2,2.4,0.2c1.3,0,2.7-0.3,4-0.5L32,57h9.8c0,0,7.7-10.1,8.8-15.6c0.7-1.7,1.3-3.5,1.2-5.4  C51.6,32.1,46.5,15.1,22.6,19.3z" fill="#F0908B"></path><path d="M35.1,6.1c-5.2,0-9.4,4.2-9.4,9.4c0,3.4,1.8,6.3,4.4,8c2.1,0,4.7,0.2,7,1.2c4.3-0.9,7.5-4.7,7.5-9.2  C44.5,10.3,40.3,6.1,35.1,6.1z" fill="#FFD766"></path><path d="  M49.2,27.8c-1.1-1.5-2.4-2.9-4-4.2" fill="none" stroke="#2C3E50" stroke-linecap="round" stroke-linejoin="round" stroke-miterlimit="10" stroke-width="2"></path><path d="  M26.7,20c-0.7-1.3-1.1-2.8-1.1-4.3c0-5.2,4.2-9.4,9.4-9.4s9.4,4.2,9.4,9.4c0,2.8-1.2,5.2-3.1,7" fill="none" stroke="#2C3E50" stroke-linecap="round" stroke-linejoin="round" stroke-miterlimit="10" stroke-width="2"></path><path d="  M38.5,12.7c0,0-0.3-1.5-3.4-1.5c-2.4,0-3.4,1.3-3.4,2.5s1.4,2,3.4,2c2.7,0,3.4,0.9,3.4,2c0,1.5-1.6,2.5-3.4,2.5  c-1.8,0-3.2-1-3.4-1.5" fill="none" stroke="#2C3E50" stroke-linecap="round" stroke-linejoin="round" stroke-miterlimit="10" stroke-width="2"></path><line fill="none" stroke="#2C3E50" stroke-linecap="round" stroke-linejoin="round" stroke-miterlimit="10" stroke-width="2" x1="35" x2="35" y1="10" y2="21"></line><circle cx="16" cy="32.8" fill="none" r="1" stroke="#2C3E50" stroke-linecap="round" stroke-linejoin="round" stroke-miterlimit="10" stroke-width="2"></circle><path d="  M22.6,19.3c-1.3,0.3-2.5,0.7-3.7,1.3c-5.4-1.3-11.9,0.4-12.6,2c-0.6,1.3,2.2,4,4.1,5.6c-0.9,1.7-1.5,3.5-1.8,5.5  c-1.9,0.2-4.5,0.8-4.9,2.4c-0.7,2.7,0,9,3.5,9.7c1.5,0.3,3.2,0.3,4.6,0.3c1.3,1.6,2.9,2.8,4.7,4L14.9,57h10.3l1.4-3.7  c0.8,0.1,1.6,0.2,2.4,0.2c1.3,0,2.7-0.3,4-0.5L32,57h9.8c0,0,7.7-10.1,8.8-15.6c0.7-1.7,1.2-3.5,1.2-5.4" fill="none" stroke="#2C3E50" stroke-linecap="round" stroke-linejoin="round" stroke-miterlimit="10" stroke-width="2"></path><path d="  M49.6,32.2c0,0,6.9,0.4,6.5-4.5c-0.3-3.6-2.1-4.3-3.3-2.8c-1,1.3,0,4.9,4.2,4.7c4.2-0.2,3-5.5,3-5.5" fill="none" stroke="#2C3E50" stroke-linecap="round" stroke-linejoin="round" stroke-miterlimit="10" stroke-width="2"></path><path d="  M26.5,23.8c0,0,8-1.5,12.5,2.1" fill="none" stroke="#2C3E50" stroke-linecap="round" stroke-linejoin="round" stroke-miterlimit="10" stroke-width="2"></path></svg>